<svg data-v-fde0c5aa="" xmlns="http://www.w3.org/2000/svg" viewBox="0 0 300 300" class="iconLeftSlogan"><!----><defs data-v-fde0c5aa=""><!----></defs><rect data-v-fde0c5aa="" fill="#E9F5E7" x="0" y="0" width="300px" height="300px" class="logo-background-square"></rect><defs data-v-fde0c5aa=""><!----></defs><g data-v-fde0c5aa="" id="9e603266-0b91-456d-922c-5b412a8140f5" fill="#0C3507" transform="matrix(3.7095011830336326,0,0,3.7095011830336326,136.88166746244343,92.72240784675508)"><path d="M4.40 12.80L4.40 12.80Q5.19 12.64 5.71 12.64L5.71 12.64L5.71 12.64Q6.90 12.64 7.74 13.22L7.74 13.22L7.74 13.22Q8.57 13.80 8.57 14.94L8.57 14.94L8.57 14.94Q8.57 16.24 7.59 17.17L7.59 17.17L7.59 17.17Q6.62 18.10 5.22 18.58L5.22 18.58L5.22 18.58Q3.82 19.05 2.55 19.08L2.55 19.08L2.46 18.75L2.46 18.75Q4.27 18.37 5.67 17.45L5.67 17.45L5.67 17.45Q7.07 16.53 7.07 15.04L7.07 15.04L7.07 15.04Q7.07 14.49 6.73 14.06L6.73 14.06L6.73 14.06Q6.40 13.62 5.87 13.38L5.87 13.38L5.87 13.38Q5.35 13.15 4.77 13.15L4.77 13.15L4.77 13.15Q3.79 13.15 2.86 13.50L2.86 13.50L2.74 13.12L2.74 13.12Q3.96 12.60 4.91 11.76L4.91 11.76L4.91 11.76Q5.87 10.92 5.87 9.90L5.87 9.90L5.87 9.90Q5.87 9.37 5.54 9.04L5.54 9.04L5.54 9.04Q5.21 8.72 4.63 8.72L4.63 8.72L4.63 8.72Q3.81 8.72 3.30 9.33L3.30 9.33L3.30 9.33Q2.80 9.94 2.59 10.77L2.59 10.77L2.59 10.77Q2.38 11.61 2.38 12.36L2.38 12.36L2.38 17.72L1.08 18.20L1.08 13.13L1.08 13.13Q1.08 11.63 1.67 10.47L1.67 10.47L1.67 10.47Q2.27 9.31 3.33 8.66L3.33 8.66L3.33 8.66Q4.40 8.01 5.75 8.01L5.75 8.01L5.75 8.01Q6.43 8.01 6.89 8.36L6.89 8.36L6.89 8.36Q7.35 8.71 7.35 9.35L7.35 9.35L7.35 9.35Q7.35 10.28 6.42 11.21L6.42 11.21L6.42 11.21Q5.49 12.14 4.37 12.74L4.37 12.74L4.40 12.80ZM12.94 10.96L13.19 11.26L13.19 11.26Q12.14 11.93 11.54 12.75L11.54 12.75L11.54 12.75Q10.93 13.58 10.93 14.70L10.93 14.70L10.93 14.70Q10.93 15.33 11.20 15.97L11.20 15.97L11.20 15.97Q11.47 16.60 12.00 17.02L12.00 17.02L12.00 17.02Q12.53 17.44 13.27 17.44L13.27 17.44L13.27 17.44Q13.87 17.44 14.34 17.16L14.34 17.16L14.34 17.16Q14.81 16.88 15.07 16.41L15.07 16.41L15.07 16.41Q15.33 15.93 15.33 15.36L15.33 15.36L15.33 15.36Q15.33 14.70 14.93 14.01L14.93 14.01L14.93 14.01Q14.53 13.33 13.89 12.85L13.89 12.85L13.89 12.85Q13.24 12.38 12.57 12.32L12.57 12.32L12.57 12.32Q12.85 12.04 13.24 11.73L13.24 11.73L13.24 11.73Q13.64 11.42 14.04 11.13L14.04 11.13L14.04 11.13Q15.01 11.45 15.57 12.36L15.57 12.36L15.57 12.36Q16.13 13.26 16.13 14.36L16.13 14.36L16.13 14.36Q16.13 15.34 15.73 16.25L15.73 16.25L15.73 16.25Q15.33 17.15 14.56 17.72L14.56 17.72L14.56 17.72Q13.79 18.28 12.74 18.28L12.74 18.28L12.74 18.28Q11.90 18.28 11.19 17.87L11.19 17.87L11.19 17.87Q10.49 17.46 10.08 16.74L10.08 16.74L10.08 16.74Q9.67 16.03 9.67 15.16L9.67 15.16L9.67 15.16Q9.67 13.64 10.58 12.52L10.58 12.52L10.58 12.52Q11.48 11.40 12.94 10.96L12.94 10.96ZM19.31 6.41L18.83 9.67L18.37 9.84L17.79 6.93L19.31 6.41ZM19.29 11.14L19.29 16.91L19.29 16.91Q19.29 17.12 19.40 17.26L19.40 17.26L19.40 17.26Q19.50 17.39 19.70 17.39L19.70 17.39L19.70 17.39Q19.85 17.39 20.04 17.25L20.04 17.25L20.04 17.25Q20.23 17.11 20.43 16.84L20.43 16.84L20.65 17.05L20.65 17.05Q20.33 17.65 19.87 17.91L19.87 17.91L19.87 17.91Q19.42 18.16 19.04 18.16L19.04 18.16L19.04 18.16Q18.54 18.16 18.26 17.84L18.26 17.84L18.26 17.84Q17.99 17.51 17.99 16.74L17.99 16.74L17.99 11.65L19.29 11.14ZM23.62 10.51L23.62 10.51Q24.09 10.51 24.31 10.68L24.31 10.68L24.31 10.68Q24.53 10.85 24.53 11.20L24.53 11.20L24.53 11.20Q24.53 11.58 24.38 11.87L24.38 11.87L24.38 11.87Q24.23 12.17 24.07 12.38L24.07 12.38L24.07 12.38Q23.90 12.59 23.84 12.67L23.84 12.67L23.84 12.67Q24.01 12.95 24.47 13.33L24.47 13.33L24.47 13.33Q24.85 13.65 25.07 13.90L25.07 13.90L25.07 13.90Q25.30 14.15 25.46 14.58L25.46 14.58L25.46 14.58Q25.62 15.01 25.62 15.62L25.62 15.62L25.62 15.62Q25.62 16.35 25.29 16.95L25.29 16.95L25.29 16.95Q24.96 17.56 24.38 17.91L24.38 17.91L24.38 17.91Q23.80 18.26 23.07 18.26L23.07 18.26L23.07 18.26Q22.62 18.26 22.09 18.07L22.09 18.07L22.09 18.07Q21.56 17.88 21.31 17.53L21.31 17.53L22.25 16.28L22.25 16.28Q22.58 16.72 22.95 17.02L22.95 17.02L22.95 17.02Q23.32 17.33 23.76 17.33L23.76 17.33L23.76 17.33Q24.36 17.33 24.79 16.93L24.79 16.93L24.79 16.93Q25.21 16.53 25.21 15.97L25.21 15.97L25.21 15.97Q25.21 15.53 24.84 15.09L24.84 15.09L24.84 15.09Q24.47 14.64 23.80 14.04L23.80 14.04L23.80 14.04Q23.72 13.97 23.48 13.76L23.48 13.76L23.48 13.76Q23.24 13.54 23.13 13.40L23.13 13.40L22.15 14.84L21.70 14.55L22.82 12.99L22.82 12.99Q22.62 12.45 22.62 11.91L22.62 11.91L22.62 11.91Q22.62 11.31 22.89 10.91L22.89 10.91L22.89 10.91Q23.16 10.51 23.62 10.51L23.62 10.51ZM23.62 11.06L23.62 11.06Q23.44 11.06 23.39 11.16L23.39 11.16L23.39 11.16Q23.34 11.26 23.34 11.45L23.34 11.45L23.34 11.45Q23.34 11.70 23.41 11.89L23.41 11.89L23.41 11.89Q23.48 12.07 23.51 12.14L23.51 12.14L23.51 12.14Q23.66 12.04 23.79 11.78L23.79 11.78L23.79 11.78Q23.93 11.52 23.93 11.34L23.93 11.34L23.93 11.34Q23.93 11.21 23.85 11.14L23.85 11.14L23.85 11.14Q23.77 11.06 23.62 11.06L23.62 11.06ZM30.88 10.96L30.88 10.96Q31.64 10.96 32.14 11.37L32.14 11.37L32.14 11.37Q32.65 11.77 32.65 12.57L32.65 12.57L32.65 12.57Q32.65 13.22 31.95 14.01L31.95 14.01L31.95 14.01Q31.26 14.80 30.33 15.46L30.33 15.46L30.33 15.46Q29.40 16.11 28.74 16.38L28.74 16.38L28.74 16.38Q29.09 16.94 29.54 17.16L29.54 17.16L29.54 17.16Q29.99 17.37 30.59 17.37L30.59 17.37L30.59 17.37Q31.26 17.37 31.93 17.03L31.93 17.03L31.93 17.03Q32.59 16.69 33.03 16.14L33.03 16.14L33.19 16.44L33.19 16.44Q32.51 17.32 31.74 17.79L31.74 17.79L31.74 17.79Q30.97 18.26 29.85 18.26L29.85 18.26L29.85 18.26Q28.99 18.26 28.32 17.84L28.32 17.84L28.32 17.84Q27.65 17.42 27.27 16.71L27.27 16.71L27.27 16.71Q26.89 16.00 26.89 15.18L26.89 15.18L26.89 15.18Q26.89 14.14 27.45 13.16L27.45 13.16L27.45 13.16Q28.01 12.18 28.94 11.57L28.94 11.57L28.94 11.57Q29.86 10.96 30.88 10.96L30.88 10.96ZM30.16 11.84L30.16 11.84Q29.54 11.84 29.06 12.24L29.06 12.24L29.06 12.24Q28.57 12.63 28.30 13.24L28.30 13.24L28.30 13.24Q28.03 13.86 28.03 14.52L28.03 14.52L28.03 14.52Q28.03 15.39 28.43 16.00L28.43 16.00L28.43 16.00Q29.02 15.74 29.71 15.20L29.71 15.20L29.71 15.20Q30.39 14.66 30.87 14.03L30.87 14.03L30.87 14.03Q31.35 13.40 31.35 12.88L31.35 12.88L31.35 12.88Q31.35 11.84 30.16 11.84L30.16 11.84Z"></path></g><defs data-v-fde0c5aa=""><linearGradient data-v-fde0c5aa="" gradientTransform="rotate(25)" id="6d1770c6-8b3d-462c-8942-62ebbe6daf8f" x1="0%" y1="0%" x2="100%" y2="0%"><stop data-v-fde0c5aa="" offset="0%" stop-color="#5A5A2D" stop-opacity="1"></stop><stop data-v-fde0c5aa="" offset="100%" stop-color="#0DE30D" stop-opacity="1"></stop></linearGradient></defs><g data-v-fde0c5aa="" id="20861f49-3512-4040-8b18-5e3aebbe52f7" stroke="none" fill="url(#6d1770c6-8b3d-462c-8942-62ebbe6daf8f)" transform="matrix(0.9158612246959473,0,0,0.9158612246959473,38.591460910788555,104.66533055034746)"><path d="M97.5 96.06a1.44 1.44 0 0 0-1.439-1.439H90.3V1.5H74.94v93.12h-6.719v-72H52.859v72H46.14V54.3H30.78v40.32h-6.72v-28.8H8.7v28.8H2.94a1.44 1.44 0 0 0 0 2.879h93.121A1.439 1.439 0 0 0 97.5 96.06"></path></g><defs data-v-fde0c5aa=""><!----></defs><g data-v-fde0c5aa="" id="be2d1b05-95a9-4e7e-a878-b12d55dc0712" fill="#0C3507" transform="matrix(0.4033048698779184,0,0,0.4033048698779184,140.66611121607363,172.65274994774282)"><path d="M5.11 10.57C2.86 10.57 1.60 8.93 1.60 6.85C1.60 4.76 2.86 3.12 5.11 3.12C6.64 3.12 7.64 3.85 8.12 4.98L9.23 4.98C8.64 3.29 7.13 2.10 5.03 2.10C2.24 2.10 0.55 4.21 0.55 6.85C0.55 9.48 2.24 11.59 5.03 11.59C7.13 11.59 8.64 10.40 9.23 8.71L8.12 8.71C7.64 9.84 6.64 10.57 5.11 10.57ZM24.23 2.21L24.23 6.33L18.84 6.33L18.84 2.21L17.79 2.21L17.79 11.48L18.84 11.48L18.84 7.35L24.23 7.35L24.23 11.48L25.28 11.48L25.28 2.21ZM38.71 2.21L37.39 2.21L33.46 11.48L34.62 11.48L35.76 8.79L40.35 8.79L41.48 11.48L42.64 11.48ZM36.16 7.83L38.05 3.30L39.94 7.83ZM58.62 2.21L55.36 6.61L52.04 2.21L50.82 2.21L50.82 11.48L51.87 11.48L51.87 3.81L55.36 8.22L58.79 3.81L58.79 11.48L59.84 11.48L59.84 2.21ZM74.94 6.75C75.60 6.45 76.19 5.85 76.19 4.66C76.19 3.54 75.45 2.21 73.26 2.21L69.10 2.21L69.10 11.48L73.50 11.48C75.61 11.48 76.66 10.43 76.66 9.04C76.66 7.66 75.73 7 74.94 6.75ZM70.15 3.21L73.37 3.21C74.65 3.21 75.14 3.98 75.14 4.75C75.14 5.88 74.23 6.36 73.26 6.36L70.15 6.36ZM73.61 10.49L70.15 10.49L70.15 7.31L73.50 7.31C74.97 7.31 75.61 8.09 75.61 8.96C75.61 9.93 74.89 10.49 73.61 10.49ZM92.19 3.22L92.19 2.21L85.37 2.21L85.37 11.48L92.19 11.48L92.19 10.47L86.42 10.47L86.42 7.35L91.57 7.35L91.57 6.33L86.42 6.33L86.42 3.22ZM101.93 7.92L105.15 7.92L107.39 11.48L108.64 11.48L106.20 7.74C107.24 7.50 108.44 6.90 108.44 5.11C108.44 3.35 107.23 2.21 105.32 2.21L100.88 2.21L100.88 11.48L101.93 11.48ZM101.93 3.21L105.20 3.21C106.51 3.21 107.39 3.93 107.39 5.11C107.39 6.55 106.13 6.93 105.14 6.93L101.93 6.93ZM131.35 2.10C128.53 2.10 126.64 4.21 126.64 6.85C126.64 9.48 128.53 11.59 131.35 11.59C134.16 11.59 136.05 9.48 136.05 6.85C136.05 4.21 134.16 2.10 131.35 2.10ZM131.35 10.57C129.09 10.57 127.69 8.93 127.69 6.85C127.69 4.76 129.09 3.12 131.35 3.12C133.60 3.12 135.00 4.76 135.00 6.85C135.00 8.93 133.60 10.57 131.35 10.57ZM151.42 3.22L151.42 2.21L144.73 2.21L144.73 11.48L145.78 11.48L145.78 7.46L150.81 7.46L150.81 6.44L145.78 6.44L145.78 3.22ZM173.85 10.57C171.60 10.57 170.34 8.93 170.34 6.85C170.34 4.76 171.60 3.12 173.85 3.12C175.38 3.12 176.39 3.85 176.86 4.98L177.97 4.98C177.38 3.29 175.87 2.10 173.77 2.10C170.98 2.10 169.29 4.21 169.29 6.85C169.29 9.48 170.98 11.59 173.77 11.59C175.87 11.59 177.38 10.40 177.97 8.71L176.86 8.71C176.39 9.84 175.38 10.57 173.85 10.57ZM190.58 2.10C187.77 2.10 185.88 4.21 185.88 6.85C185.88 9.48 187.77 11.59 190.58 11.59C193.40 11.59 195.29 9.48 195.29 6.85C195.29 4.21 193.40 2.10 190.58 2.10ZM190.58 10.57C188.33 10.57 186.93 8.93 186.93 6.85C186.93 4.76 188.33 3.12 190.58 3.12C192.84 3.12 194.24 4.76 194.24 6.85C194.24 8.93 192.84 10.57 190.58 10.57ZM211.76 2.21L208.50 6.61L205.18 2.21L203.97 2.21L203.97 11.48L205.02 11.48L205.02 3.81L208.50 8.22L211.93 3.81L211.93 11.48L212.98 11.48L212.98 2.21ZM230.05 2.21L226.79 6.61L223.47 2.21L222.25 2.21L222.25 11.48L223.30 11.48L223.30 3.81L226.79 8.22L230.22 3.81L230.22 11.48L231.27 11.48L231.27 2.21ZM247.35 3.22L247.35 2.21L240.53 2.21L240.53 11.48L247.35 11.48L247.35 10.47L241.58 10.47L241.58 7.35L246.74 7.35L246.74 6.33L241.58 6.33L241.58 3.22ZM257.10 7.92L260.32 7.92L262.56 11.48L263.80 11.48L261.37 7.74C262.40 7.50 263.61 6.90 263.61 5.11C263.61 3.35 262.39 2.21 260.48 2.21L256.05 2.21L256.05 11.48L257.10 11.48ZM257.10 3.21L260.36 3.21C261.67 3.21 262.56 3.93 262.56 5.11C262.56 6.55 261.30 6.93 260.30 6.93L257.10 6.93ZM276.39 10.57C274.13 10.57 272.87 8.93 272.87 6.85C272.87 4.76 274.13 3.12 276.39 3.12C277.91 3.12 278.92 3.85 279.40 4.98L280.50 4.98C279.92 3.29 278.40 2.10 276.30 2.10C273.52 2.10 271.82 4.21 271.82 6.85C271.82 9.48 273.52 11.59 276.30 11.59C278.40 11.59 279.92 10.40 280.50 8.71L279.40 8.71C278.92 9.84 277.91 10.57 276.39 10.57ZM295.89 3.22L295.89 2.21L289.07 2.21L289.07 11.48L295.89 11.48L295.89 10.47L290.12 10.47L290.12 7.35L295.27 7.35L295.27 6.33L290.12 6.33L290.12 3.22Z"></path></g></svg>