<svg data-v-423bf9ae="" xmlns="http://www.w3.org/2000/svg" viewBox="0 0 152.0599681245464 60" class="font"><!----><!----><!----><g data-v-423bf9ae="" id="9d1c4d0a-803d-44bd-bfb1-70bbb2d7e465" fill="white" transform="matrix(4.735595867300924,0,0,4.735595867300924,-5.114444162470832,-30.355167833130025)"><path d="M4.40 12.80L4.40 12.80Q5.19 12.64 5.71 12.64L5.71 12.64L5.71 12.64Q6.90 12.64 7.74 13.22L7.74 13.22L7.74 13.22Q8.57 13.80 8.57 14.94L8.57 14.94L8.57 14.94Q8.57 16.24 7.59 17.17L7.59 17.17L7.59 17.17Q6.62 18.10 5.22 18.58L5.22 18.58L5.22 18.58Q3.82 19.05 2.55 19.08L2.55 19.08L2.46 18.75L2.46 18.75Q4.27 18.37 5.67 17.45L5.67 17.45L5.67 17.45Q7.07 16.53 7.07 15.04L7.07 15.04L7.07 15.04Q7.07 14.49 6.73 14.06L6.73 14.06L6.73 14.06Q6.40 13.62 5.87 13.38L5.87 13.38L5.87 13.38Q5.35 13.15 4.77 13.15L4.77 13.15L4.77 13.15Q3.79 13.15 2.86 13.50L2.86 13.50L2.74 13.12L2.74 13.12Q3.96 12.60 4.91 11.76L4.91 11.76L4.91 11.76Q5.87 10.92 5.87 9.90L5.87 9.90L5.87 9.90Q5.87 9.37 5.54 9.04L5.54 9.04L5.54 9.04Q5.21 8.72 4.63 8.72L4.63 8.72L4.63 8.72Q3.81 8.72 3.30 9.33L3.30 9.33L3.30 9.33Q2.80 9.94 2.59 10.77L2.59 10.77L2.59 10.77Q2.38 11.61 2.38 12.36L2.38 12.36L2.38 17.72L1.08 18.20L1.08 13.13L1.08 13.13Q1.08 11.63 1.67 10.47L1.67 10.47L1.67 10.47Q2.27 9.31 3.33 8.66L3.33 8.66L3.33 8.66Q4.40 8.01 5.75 8.01L5.75 8.01L5.75 8.01Q6.43 8.01 6.89 8.36L6.89 8.36L6.89 8.36Q7.35 8.71 7.35 9.35L7.35 9.35L7.35 9.35Q7.35 10.28 6.42 11.21L6.42 11.21L6.42 11.21Q5.49 12.14 4.37 12.74L4.37 12.74L4.40 12.80ZM12.94 10.96L13.19 11.26L13.19 11.26Q12.14 11.93 11.54 12.75L11.54 12.75L11.54 12.75Q10.93 13.58 10.93 14.70L10.93 14.70L10.93 14.70Q10.93 15.33 11.20 15.97L11.20 15.97L11.20 15.97Q11.47 16.60 12.00 17.02L12.00 17.02L12.00 17.02Q12.53 17.44 13.27 17.44L13.27 17.44L13.27 17.44Q13.87 17.44 14.34 17.16L14.34 17.16L14.34 17.16Q14.81 16.88 15.07 16.41L15.07 16.41L15.07 16.41Q15.33 15.93 15.33 15.36L15.33 15.36L15.33 15.36Q15.33 14.70 14.93 14.01L14.93 14.01L14.93 14.01Q14.53 13.33 13.89 12.85L13.89 12.85L13.89 12.85Q13.24 12.38 12.57 12.32L12.57 12.32L12.57 12.32Q12.85 12.04 13.24 11.73L13.24 11.73L13.24 11.73Q13.64 11.42 14.04 11.13L14.04 11.13L14.04 11.13Q15.01 11.45 15.57 12.36L15.57 12.36L15.57 12.36Q16.13 13.26 16.13 14.36L16.13 14.36L16.13 14.36Q16.13 15.34 15.73 16.25L15.73 16.25L15.73 16.25Q15.33 17.15 14.56 17.72L14.56 17.72L14.56 17.72Q13.79 18.28 12.74 18.28L12.74 18.28L12.74 18.28Q11.90 18.28 11.19 17.87L11.19 17.87L11.19 17.87Q10.49 17.46 10.08 16.74L10.08 16.74L10.08 16.74Q9.67 16.03 9.67 15.16L9.67 15.16L9.67 15.16Q9.67 13.64 10.58 12.52L10.58 12.52L10.58 12.52Q11.48 11.40 12.94 10.96L12.94 10.96ZM19.31 6.41L18.83 9.67L18.37 9.84L17.79 6.93L19.31 6.41ZM19.29 11.14L19.29 16.91L19.29 16.91Q19.29 17.12 19.40 17.26L19.40 17.26L19.40 17.26Q19.50 17.39 19.70 17.39L19.70 17.39L19.70 17.39Q19.85 17.39 20.04 17.25L20.04 17.25L20.04 17.25Q20.23 17.11 20.43 16.84L20.43 16.84L20.65 17.05L20.65 17.05Q20.33 17.65 19.87 17.91L19.87 17.91L19.87 17.91Q19.42 18.16 19.04 18.16L19.04 18.16L19.04 18.16Q18.54 18.16 18.26 17.84L18.26 17.84L18.26 17.84Q17.99 17.51 17.99 16.74L17.99 16.74L17.99 11.65L19.29 11.14ZM23.62 10.51L23.62 10.51Q24.09 10.51 24.31 10.68L24.31 10.68L24.31 10.68Q24.53 10.85 24.53 11.20L24.53 11.20L24.53 11.20Q24.53 11.58 24.38 11.87L24.38 11.87L24.38 11.87Q24.23 12.17 24.07 12.38L24.07 12.38L24.07 12.38Q23.90 12.59 23.84 12.67L23.84 12.67L23.84 12.67Q24.01 12.95 24.47 13.33L24.47 13.33L24.47 13.33Q24.85 13.65 25.07 13.90L25.07 13.90L25.07 13.90Q25.30 14.15 25.46 14.58L25.46 14.58L25.46 14.58Q25.62 15.01 25.62 15.62L25.62 15.62L25.62 15.62Q25.62 16.35 25.29 16.95L25.29 16.95L25.29 16.95Q24.96 17.56 24.38 17.91L24.38 17.91L24.38 17.91Q23.80 18.26 23.07 18.26L23.07 18.26L23.07 18.26Q22.62 18.26 22.09 18.07L22.09 18.07L22.09 18.07Q21.56 17.88 21.31 17.53L21.31 17.53L22.25 16.28L22.25 16.28Q22.58 16.72 22.95 17.02L22.95 17.02L22.95 17.02Q23.32 17.33 23.76 17.33L23.76 17.33L23.76 17.33Q24.36 17.33 24.79 16.93L24.79 16.93L24.79 16.93Q25.21 16.53 25.21 15.97L25.21 15.97L25.21 15.97Q25.21 15.53 24.84 15.09L24.84 15.09L24.84 15.09Q24.47 14.64 23.80 14.04L23.80 14.04L23.80 14.04Q23.72 13.97 23.48 13.76L23.48 13.76L23.48 13.76Q23.24 13.54 23.13 13.40L23.13 13.40L22.15 14.84L21.70 14.55L22.82 12.99L22.82 12.99Q22.62 12.45 22.62 11.91L22.62 11.91L22.62 11.91Q22.62 11.31 22.89 10.91L22.89 10.91L22.89 10.91Q23.16 10.51 23.62 10.51L23.62 10.51ZM23.62 11.06L23.62 11.06Q23.44 11.06 23.39 11.16L23.39 11.16L23.39 11.16Q23.34 11.26 23.34 11.45L23.34 11.45L23.34 11.45Q23.34 11.70 23.41 11.89L23.41 11.89L23.41 11.89Q23.48 12.07 23.51 12.14L23.51 12.14L23.51 12.14Q23.66 12.04 23.79 11.78L23.79 11.78L23.79 11.78Q23.93 11.52 23.93 11.34L23.93 11.34L23.93 11.34Q23.93 11.21 23.85 11.14L23.85 11.14L23.85 11.14Q23.77 11.06 23.62 11.06L23.62 11.06ZM30.88 10.96L30.88 10.96Q31.64 10.96 32.14 11.37L32.14 11.37L32.14 11.37Q32.65 11.77 32.65 12.57L32.65 12.57L32.65 12.57Q32.65 13.22 31.95 14.01L31.95 14.01L31.95 14.01Q31.26 14.80 30.33 15.46L30.33 15.46L30.33 15.46Q29.40 16.11 28.74 16.38L28.74 16.38L28.74 16.38Q29.09 16.94 29.54 17.16L29.54 17.16L29.54 17.16Q29.99 17.37 30.59 17.37L30.59 17.37L30.59 17.37Q31.26 17.37 31.93 17.03L31.93 17.03L31.93 17.03Q32.59 16.69 33.03 16.14L33.03 16.14L33.19 16.44L33.19 16.44Q32.51 17.32 31.74 17.79L31.74 17.79L31.74 17.79Q30.97 18.26 29.85 18.26L29.85 18.26L29.85 18.26Q28.99 18.26 28.32 17.84L28.32 17.84L28.32 17.84Q27.65 17.42 27.27 16.71L27.27 16.71L27.27 16.71Q26.89 16.00 26.89 15.18L26.89 15.18L26.89 15.18Q26.89 14.14 27.45 13.16L27.45 13.16L27.45 13.16Q28.01 12.18 28.94 11.57L28.94 11.57L28.94 11.57Q29.86 10.96 30.88 10.96L30.88 10.96ZM30.16 11.84L30.16 11.84Q29.54 11.84 29.06 12.24L29.06 12.24L29.06 12.24Q28.57 12.63 28.30 13.24L28.30 13.24L28.30 13.24Q28.03 13.86 28.03 14.52L28.03 14.52L28.03 14.52Q28.03 15.39 28.43 16.00L28.43 16.00L28.43 16.00Q29.02 15.74 29.71 15.20L29.71 15.20L29.71 15.20Q30.39 14.66 30.87 14.03L30.87 14.03L30.87 14.03Q31.35 13.40 31.35 12.88L31.35 12.88L31.35 12.88Q31.35 11.84 30.16 11.84L30.16 11.84Z"></path></g><!----><!----></svg>